{"title":"In Stereo 2015 720p WEB-DL XviD MP3-RARBG","uid":12089753,"size":2340120205,"categoryP":"video","categoryS":"hd___movies","magnet":"?xt=urn:btih:007049689ed82f74f3d5414161a1e9472d046fd1&amp;dn=In+Stereo+2015+720p+WEB-DL+XviD+MP3-RARBG&amp;tr=udp%3A%2F%2Ftracker.openbittorrent.com%3A80&amp;tr=udp%3A%2F%2Fopen.demonii.com%3A1337&amp;tr=udp%3A%2F%2Ftracker.coppersurfer.tk%3A6969&amp;tr=udp%3A%2F%2Fexodus.desync.com%3A6969","seeders":0,"leechers":1,"uploader":"SFS27","files":5,"time":1436005247,"description":"Summary:\nDavid and Brenda are perfect for each other, and everyone knows it except David and Brenda. After they break up, due to mutual immaturity, they voyage through a romantic Purgatory that shakes both of them to their core, until they realize what's apparent, and work out a design for being together that they refuse to call &quot;being together&quot;. A sharply observed, dark comedy about the complexity of modern relationships, In Stereo is a humorous look into the lives of confused 30 somethings trying to figure it all out.\n\n\nCover: &lt;a href=&quot;\nhttp://imgthat.com/img-5597966856988.html&quot; rel=&quot;nofollow&quot; target=&quot;_NEW&quot;&gt;\nhttp://imgthat.com/img-5597966856988.html&lt;/a&gt;\n\n\nScreens: &lt;a href=&quot;\nhttp://imgthat.com/img-559796492365f.html&quot; rel=&quot;nofollow&quot; target=&quot;_NEW&quot;&gt;\nhttp://imgthat.com/img-559796492365f.html&lt;/a&gt;\n &lt;a href=&quot;\nhttp://imgthat.com/img-559796c6a59e6.html&quot; rel=&quot;nofollow&quot; target=&quot;_NEW&quot;&gt;\nhttp://imgthat.com/img-559796c6a59e6.html&lt;/a&gt;\n &lt;a href=&quot;\nhttp://imgthat.com/img-559796f55564b.html&quot; rel=&quot;nofollow&quot; target=&quot;_NEW&quot;&gt;\nhttp://imgthat.com/img-559796f55564b.html&lt;/a&gt;\n\nMediainfo :\n\nVideo\nID : 0\nFormat : MPEG-4 Visual\nFormat profile : Simple@L5\nFormat settings, BVOP : No\nFormat settings, QPel : No\nFormat settings, GMC : No warppoints\nFormat settings, Matrix : Default (H.263)\nCodec ID : XVID\nCodec ID/Hint : XviD\nDuration : 1h 35mn\nBit rate : 3 060 Kbps\nWidth : 1 280 pixels\nHeight : 530 pixels\nDisplay aspect ratio : 2.40:1\nFrame rate : 23.976 fps\nColor space : YUV\nChroma subsampling : 4:2:0\nBit depth : 8 bits\nScan type : Progressive\nCompression mode : Lossy\nBits/(Pixel*Frame) : 0.188\nStream size : 2.04 GiB (94%)\nWriting library : Lavc56.13.100\n\nAudio\nID : 1\nFormat : MPEG Audio\nFormat version : Version 1\nFormat profile : Layer 3\nMode : Joint stereo\nMode extension : MS Stereo\nCodec ID : 55\nCodec ID/Hint : MP3\nDuration : 1h 35mn\nBit rate mode : Constant\nBit rate : 192 Kbps\nChannel(s) : 2 channels\nSampling rate : 48.0 KHz\nCompression mode : Lossy\nStream size : 131 MiB (6%)\nAlignment : Aligned on interleaves\nInterleave, duration : 24 ms (0.58 video frame)\nInterleave, preload duration : 504 ms\nWriting library : LAME3.99.5","torrent":{"xt":"urn:btih:007049689ed82f74f3d5414161a1e9472d046fd1","amp;dn":"In+Stereo+2015+720p+WEB-DL+XviD+MP3-RARBG","amp;tr":["udp%3A%2F%2Ftracker.openbittorrent.com%3A80","udp%3A%2F%2Fopen.demonii.com%3A1337","udp%3A%2F%2Ftracker.coppersurfer.tk%3A6969","udp%3A%2F%2Fexodus.desync.com%3A6969"],"infoHash":"007049689ed82f74f3d5414161a1e9472d046fd1","infoHashBuffer":{"type":"Buffer","data":[0,112,73,104,158,216,47,116,243,213,65,65,97,161,233,71,45,4,111,209]},"announce":[],"urlList":[]}}